<?xml version="1.0" encoding="utf-8"?><svg version="1.1" id="svg" xmlns="http://www.w3.org/2000/svg" xmlns:xlink="http://www.w3.org/1999/xlink" x="0px" y="0px" width="1200px" height="600px" viewBox="0 0 1200 600" style="enable-background:new 0 0 1200 600;" xml:space="preserve"> <title>Excite.com mail SVG Icon Logo - free.</title> <metadata><script type="application/ld+json">{"@context": "http://schema.org","@type": "ImageObject","author": "free.","version": "2.0","embedUrl": "http://free.arinco.org/mail/excitecom/","contentUrl": "http://free.arinco.org/images/mail/mail-excite-logo_1200.svg","dateCreated": "2015-07-19T10:24:22+09:00","datePublished": "2016-03-19T11:33:18+09:00","description": "The logo has been used in free.arinco.org.Please feel free to use this Excite SVG LOGO.","name": "Excite SVG Icon Logo"}</script></metadata> <style><![CDATA[ .st0{fill:#E11E17;} .st1{fill:#2C2320;}]]></style><a xlink:href="http://free.arinco.org/mail/excitecom/"><path class="st1" d="M60,377.335c0,48.856,28.96,76.666,76.271,79.923c28.689,1.979,61.929-2.815,80.706-10.32v-35.592 c-18.543,5.13-36.87,6.864-55.373,6.887c-22.034,0.035-27.791-7.748-35.15-26.772h99.418v-6.271c0-19.362-3.362-35.197-9.419-48.138 c-14.349-30.67-44.318-38.197-75.871-38.197C92.306,298.854,60,328.407,60,377.335L60,377.335z M166.744,360.592h-41.338 c3.582-11.101,5.814-26.156,20.929-26.156C161.926,334.436,165.152,347.862,166.744,360.592L166.744,360.592z M974.131,377.335 c0,47.821,42.423,87.114,92.414,79.54l65.607-9.938v-35.592c-21.283,2.269-42.483,5.457-63.84,6.806 c-15.224,0.967-25.184-13.497-27.208-26.691H1140v-6.271c0-56.561-28.07-86.335-84.763-86.335 C1007.438,298.854,974.131,328.629,974.131,377.335L974.131,377.335z M1081.397,360.592h-40.817 c2.858-11.076,4.591-26.156,19.886-26.156C1075.988,334.436,1079.774,347.642,1081.397,360.592L1081.397,360.592z M542.442,378.906 c0,11.786,3.566,32.439,19.359,32.439c12.091,0,17.511-15.093,19.884-24.587h74.827c-14.251,42.749-34.76,68.092-86.337,70.116 c-50.37,1.978-97.328-17.256-97.328-78.493c0-60.027,41.556-79.911,93.142-79.527c50.713,0.365,78.342,16.673,90.523,65.402h-77.445 c-1.297-9.751-5.184-19.885-16.743-19.885C546.186,344.372,542.442,367.084,542.442,378.906L542.442,378.906z M698.371,302.508 h70.115v149.654h-70.115V302.508L698.371,302.508z M698.371,283.151v-22.5l70.115-23.023v45.523H698.371L698.371,283.151z M832.849,270.071l64.361-19.886v52.322h36.103v41.864H897.21v53.896c1.878,8.645,1.628,19.046,14.131,16.743l19.879-3.665 l4.711,40.293l-45.522,5.236c-43.342,1.559-57.56-16.651-57.56-59.655v-52.848h-24.592v-41.864h24.592V270.071L832.849,270.071z M230.058,267.457l-3.142-6.806l2.619-4.709c5.232-1.57,14.648,2.092,28.779,11.515l6.801,12.033l6.281,6.28l35.581,32.445 l15.695,10.46c8.898,5.76,15.7,13.602,20.933,23.55c4.185,5.747,9.416,8.366,16.743,7.843c0,6.805,3.139,10.995,9.419,12.043h2.615 v-3.665l-6.277-1.573l-4.187-6.805c-1.57-7.843-1.047-11.508,2.616-12.555l6.8-0.524l5.236-2.617l12.555-10.461l2.617-2.094v-10.472 l6.804-5.748h1.568l4.708-3.665l0.524-7.854l2.615-6.271l11.513-7.852l1.047-5.757l1.571-4.709l3.663-2.618l2.615-2.615 l1.571-10.463h2.615v7.848c1.044,2.615,3.662,3.662,6.28,2.615l-4.712-10.463v-7.852l3.666-2.614l12.034-10.99 c2.616-2.091,5.233,0,6.28,4.186c1.047,5.233-1.047,11.511-4.188,17.271v3.663c4.188,6.277,5.235,10.462,4.188,12.033l-11.513,7.326 L441.976,291l-7.851,1.047l-0.523,10.461v10.995c-1.044,4.713-4.707,6.283-8.892,5.236l-1.047,15.172l-13.082,17.268l-8.371,13.078 l-2.094,5.236l-6.801,10.46l-1.571,4.188c-2.617,6.282-3.663,9.937-2.094,11.507l25.641,31.405l3.139,6.271 c28.257,30.357,44.477,53.896,50.757,69.592v8.9l-7.848,7.842l-24.593,13.614c-2.619,2.618-6.802,2.618-13.082,0 c0-2.617-1.568-4.189-5.233-5.76l-0.523-5.235c3.141-7.319,3.141-12.555,0.523-15.695l-3.139-3.666c0-4.178-2.094-7.843-6.28-10.46 l-5.233-1.048l-4.183-2.618v-6.795l-7.851-8.901l1.571-4.188l5.233-1.57c1.047-3.653-1.047-5.226-4.186-5.226l-8.898-2.094 c-3.663-2.617-3.663-5.236,0-7.854l2.617-8.365h-4.186v-6.283h-6.277l-1.047-7.854l-5.236-1.559l-0.523-4.713l-2.616-1.57 l-1.046,2.617l-2.615,4.179l-3.663,8.9l-61.743,70.639l-11.513-1.047l-4.186-5.761L268.78,488.79l-20.933-27.728v-2.617 l12.035-12.031l12.037-1.048v4.179l6.277,1.047l5.233-5.226l6.278-4.188l1.571-2.095c6.804-0.523,9.417-4.188,8.895-9.425 c0-5.225,1.571-6.271,5.232-3.653c0.524,2.607,4.187,3.653,9.419,3.653c2.618-1.046,4.186-2.605,4.186-5.225l1.047-7.854 c1.047-2.617,2.615-3.664,5.233-2.617l1.045-12.03c0.524-4.713,3.141-6.284,7.851-4.713l3.138,5.235h4.71v-7.854l-1.047-2.617 l-6.8-4.179l-2.092-9.424l-4.188-10.46l-14.125-7.854c1.044-4.7,0-7.319-0.523-7.843h-5.236l-3.663-6.283l-13.08-8.891l-1.571-4.188 v-6.283L285,326.057l-13.081-16.743l-5.233-4.188l-4.189,0.523l-7.846-0.523l-2.618-10.462l-1.567-9.94L230.058,267.457 L230.058,267.457z"/><path class="st0" d="M145.812,175.886l-7.325-7.852c-2.614-2.614-3.138-6.277-1.571-9.416l2.619-2.614 c1.57-1.048,4.185,0.521,6.8,3.139l3.665,5.229l10.464,9.942l1.571,2.619l9.943,10.986l5.753,4.71l7.851,10.989l2.095,1.047 l3.138,4.184l6.278,3.662l2.615,6.806l4.189,4.706l2.614,5.234l-6.803,5.232l-1.568,3.139c-2.094,2.619-3.662,2.619-6.277,0 l-8.898-4.185l-5.233-4.187l-5.753-13.081l-11.514-8.896l-13.082-21.976L145.812,175.886L145.812,175.886z M241.567,120.942 l3.663,12.035v2.616l1.57,8.896l4.19,7.849l2.09,6.279l0.524,9.416l2.615,6.804v11.511l6.277,8.895l6.283,3.142l5.753,1.048 c6.28-1.048,9.942-4.189,9.942-10.467l0.523-2.617l2.092-3.663v-5.232l-1.047-1.567l-6.801-2.615l-6.28-5.236V157.57l-1.044-1.566 l-4.186-11.514l-5.236-7.849l-1.044-2.618l-5.233-9.418l-0.523-2.615l-2.616-9.943l-5.233-6.804l-1.047-3.661l-1.57-5.754 l-3.663-4.71l-3.663-3.141l-4.185-1.049v3.665l3.661,9.42l-1.044,8.895L241.567,120.942L241.567,120.942z M389.649,80.128 l-1.568-8.894l-4.186-4.189c0-2.092-1.047-2.616-2.095-2.092l-5.229,6.281v7.847l-4.189,7.848v15.699l-1.571,3.663l-2.616,15.699 l-3.661,6.801v19.885l-2.616,7.328l-3.662,4.182l1.045,11.514c1.047,3.139,4.186,5.754,10.466,7.848h10.466l3.662-1.047l0.524-2.614 l1.044-8.896l-5.23-7.847v-5.757l1.567-4.71l1.047-9.419l1.047-5.233l0.524-19.884l1.044-2.616v-11.51l3.663-10.466L389.649,80.128 L389.649,80.128z M518.895,95.828l-6.28,5.229L510,106.291c-7.848,7.849-14.651,18.838-18.837,32.966l-4.71,5.233l-5.232,10.466 l-4.186,5.229l-2.615,7.849l-1.571,6.279c-3.662,5.233-5.233,10.99-5.233,17.268v2.615l8.372,4.188l9.942-0.523l2.618-9.942 l1.569-8.372l14.652-42.905l7.324-12.036l1.57-4.71l1.047-5.756l0.521-4.707c5.235-4.189,7.851-9.419,7.851-13.604l-4.186-1.047 V95.828L518.895,95.828z M337.324,241.291l6.281,2.617l1.568,1.048v5.229c-1.568,1.571-4.187,2.618-7.849,1.571l-2.615-8.895 l-2.615-0.524l-5.759,6.804v4.187l-2.616,4.706l-1.047,8.374v12.559l1.571,5.232l12.558,10.986l8.372,5.238l10.466-0.523 l13.081-12.562c7.851-4.188,13.08-10.467,16.743-16.221l2.617-6.281v-15.695c0-5.233-1.047-9.419-2.617-12.036l-2.616-2.616 l-10.466-5.232h-2.615l-16.747-1.049l-12.034,1.572C337.324,232.396,336.801,236.061,337.324,241.291L337.324,241.291z"/> </a></svg>